<?xml version="1.0" encoding="UTF-8" standalone="no"?>
<!-- Created with Inkscape (http://www.inkscape.org/) -->

<svg
   xmlns:dc="http://purl.org/dc/elements/1.1/"
   xmlns:cc="http://creativecommons.org/ns#"
   xmlns:rdf="http://www.w3.org/1999/02/22-rdf-syntax-ns#"
   xmlns:svg="http://www.w3.org/2000/svg"
   xmlns="http://www.w3.org/2000/svg"
   xmlns:sodipodi="http://sodipodi.sourceforge.net/DTD/sodipodi-0.dtd"
   xmlns:inkscape="http://www.inkscape.org/namespaces/inkscape"
   width="143.51579mm"
   height="61.938225mm"
   viewBox="0 0 508.5205 219.46615"
   id="svg2"
   version="1.1"
   inkscape:version="0.92.2 (5c3e80d, 2017-08-06)"
   sodipodi:docname="Logo-transparent.svg">
  <defs
     id="defs4" />
  <sodipodi:namedview
     id="base"
     pagecolor="#ffffff"
     bordercolor="#666666"
     borderopacity="1.0"
     inkscape:pageopacity="0.0"
     inkscape:pageshadow="2"
     inkscape:zoom="2.8284271"
     inkscape:cx="206.16235"
     inkscape:cy="125.80175"
     inkscape:document-units="px"
     inkscape:current-layer="layer1"
     showgrid="false"
     fit-margin-top="10"
     fit-margin-left="10"
     fit-margin-right="10"
     fit-margin-bottom="10"
     inkscape:window-width="1920"
     inkscape:window-height="1138"
     inkscape:window-x="-8"
     inkscape:window-y="-8"
     inkscape:window-maximized="1" />
  <metadata
     id="metadata7">
    <rdf:RDF>
      <cc:Work
         rdf:about="">
        <dc:format>image/svg+xml</dc:format>
        <dc:type
           rdf:resource="http://purl.org/dc/dcmitype/StillImage" />
        <dc:title></dc:title>
      </cc:Work>
    </rdf:RDF>
  </metadata>
  <g
     inkscape:label="Layer 1"
     inkscape:groupmode="layer"
     id="layer1"
     transform="translate(-48.918955,-692.76325)">
    <path
       transform="matrix(1,0,-0.10452847,0.99452189,0,0)"
       d="m 279.21381,868.78151 c 0,0 -0.264,0.55935 -8.98564,4.26861 -8.72164,3.70926 -18.31058,5.7604 -28.37597,5.7604 -40.26156,0 -72.9,-32.81822 -72.9,-73.30155 0,-40.48333 32.63844,-73.30155 72.9,-73.30155 10.06539,0 19.65433,2.05114 28.37597,5.7604 8.72163,3.70926 20.42394,12.57783 27.02009,19.21031 l -19.87181,19.88155 -3.63374,-3.61689 c -8.203,-8.16496 -19.43649,-13.28224 -31.89051,-13.28224 -24.90804,0 -45.1,20.30318 -45.1,45.34842 0,25.04525 20.19196,45.34843 45.1,45.34843 12.45402,0 23.21733,-5.63623 23.21733,-5.63623 0,0 1.40212,5.7838 4.85174,11.83909 3.58969,6.30116 9.29254,11.72125 9.29254,11.72125 z"
       id="circle5535"
       inkscape:connector-curvature="0"
       sodipodi:nodetypes="csssssccsssscsc" />
    <path
       inkscape:connector-curvature="0"
       d="m 310.8064,744.89636 c 9.9,-1.1 18.7,-1.6 26.6,-1.6 3.6,0 6.4,1.1 8.4,3.3 2,2.2 2.7,5.1 2.4,8.7 l -3.3,31.2 h -12.4 l -0.4,-4 c -2.7,1.7 -5.4,2.9 -8.1,3.6 -2.7,0.8 -5,1.2 -6.8,1.2 h -2.8 c -3.6,0 -6.4,-1.1 -8.4,-3.3 -2,-2.2 -2.7,-5.1 -2.4,-8.7 l 0.4,-3.6 c 0.4,-3.6 1.8,-6.5 4.2,-8.7 2.4,-2.2 5.4,-3.3 9.1,-3.3 h 16.4 l 0.3,-3.2 c 0.1,-0.8 -0.1,-1.5 -0.6,-2 -0.5,-0.5 -1.1,-0.8 -1.9,-0.8 -3.5,0 -7.3,0.2 -11.5,0.5 -4.2,0.3 -7.6,0.6 -10.2,0.7 z m 11.5,31.2 c 2.8,0 6.1,-0.5 9.8,-1.6 l 0.5,-4.8 h -11.6 c -0.8,0 -1.5,0.3 -2.1,0.8 -0.6,0.5 -0.9,1.2 -1,2 l -0.1,0.8 c -0.1,0.8 0.1,1.5 0.6,2 0.5,0.5 1.1,0.8 1.9,0.8 z"
       id="path5543" />
    <path
       inkscape:connector-curvature="0"
       d="m 367.8064,769.69636 -1.8,16.8 h -14 l 5.9,-56 h 14 l -3,28.4 h 6.4 l 10.4,-14.8 h 14.8 l -14.1,20.4 9.7,22 h -14.8 l -7.4,-16.8 z"
       id="path5545" />
    <path
       inkscape:connector-curvature="0"
       d="m 421.9064,745.69636 -4.3,40.8 h -14 l 3.2,-30 h -6 l 1.1,-10.8 z m -12.3,-16 h 14 l -1.2,11.2 h -14 z"
       id="path5547" />
    <path
       inkscape:connector-curvature="0"
       d="m 452.5064,754.89636 c -2.8,0 -6.1,0.5 -9.8,1.6 l -3.2,30 h -14 l 4.5,-42.4 h 12.4 l 0.4,4 c 2.7,-1.7 5.4,-2.9 8.1,-3.6 2.7,-0.8 5,-1.2 6.8,-1.2 h 3.6 c 3.6,0 6.4,1.1 8.4,3.3 2,2.2 2.7,5.1 2.4,8.7 l -3.3,31.2 h -14 l 3,-28.8 c 0.1,-0.8 -0.1,-1.5 -0.6,-2 -0.5,-0.5 -1.1,-0.8 -1.9,-0.8 z"
       id="path5549" />
    <path
       inkscape:connector-curvature="0"
       d="m 503.9064,783.29636 c -5.3,1.1 -9.9,1.6 -13.8,1.6 h -2.8 c -3.6,0 -6.4,-1.1 -8.4,-3.3 -2,-2.2 -2.7,-5.1 -2.4,-8.7 l 1.7,-16 c 0.4,-4 1.9,-7.1 4.4,-9.4 2.5,-2.3 5.8,-3.4 9.8,-3.4 h 29.6 l -4.7,44.8 c -0.4,3.6 -1.8,6.5 -4.2,8.7 -2.4,2.2 -5.4,3.3 -9.1,3.3 -8.4,0 -17.7,-0.5 -27.8,-1.6 l 1.1,-10.4 c 10.1,0.8 17.8,1.2 23.1,1.2 0.8,0 1.5,-0.3 2.1,-0.8 0.6,-0.5 0.9,-1.2 1,-2 z m -8.6,-9.2 c 3.4,0 6.6,-0.3 9.7,-0.8 l 1.9,-18.4 h -11.2 c -2.1,0 -3.3,1.1 -3.5,3.2 l -1.4,13.2 c -0.1,0.8 0.1,1.5 0.6,2 0.5,0.5 1.1,0.8 1.9,0.8 z"
       id="path5551" />
    <path
       inkscape:connector-curvature="0"
       d="m 320.465,800.44206 c -11.3455,0.16063 -22.739,-0.25505 -34.0293,1.11914 -7.5871,2.97481 -12.0674,11.65585 -10.8887,19.59375 0.09,2.57784 0.4705,5.13332 0.834,7.6836 4.9397,4.98203 12.3718,6.75186 19.1953,5.94922 3.7819,0.01 7.5638,0.0195 11.3457,0.0293 0.9615,2.88155 0.079,5.91447 -0.5664,8.75977 -2.9975,2.56399 -7.1833,2.04344 -10.839,2.06943 -6.09815,-0.0599 -12.1929,-0.26985 -18.28499,-0.54185 -3.04604,-0.13601 -5.47619,-0.22892 -8.52099,-0.38492 0,0 -0.54465,1.50591 -2.66015,5.0873 -2.31521,3.9195 -4.13819,5.97511 -4.13819,5.97511 l 1.37202,0.0767 c 10.3224,0.57705 20.67441,0.42624 31.0091,0.69934 5.4962,0.0859 10.9933,0.0598 16.49,0.0638 7.9724,-3.09126 12.6008,-12.35697 11.041,-20.63867 -0.2201,-3.17896 -1.0069,-6.33838 -2.4922,-9.16797 -6.2272,-3.90204 -13.8321,-4.37496 -20.9853,-4.13572 -2.1762,-0.1045 -4.3523,-0.209 -6.5284,-0.3135 -3.4036,-2.7728 -2.1831,-9.11313 2.0059,-10.42578 8.4974,-0.0619 16.9948,-0.1237 25.4922,-0.18555 1.1806,-3.37727 1.3766,-6.97697 1.9355,-10.48437 -0.1791,-0.31931 -0.2803,-0.95752 -0.7871,-0.82813 z"
       id="path5553"
       sodipodi:nodetypes="ccccccccscscscccccccccc" />
    <path
       inkscape:connector-curvature="0"
       d="m 340.8064,856.49636 -1.4,13.6 h -14 l 5.9,-56 h 12.4 l 0.4,4 c 2.7,-1.7 5.4,-2.9 8.1,-3.6 2.7,-0.8 5,-1.2 6.8,-1.2 h 3.6 c 3.6,0 6.4,1.1 8.4,3.3 2,2.2 2.7,5.1 2.4,8.7 l -1.9,18.4 c -0.4,4 -1.9,7.1 -4.4,9.4 -2.5,2.3 -5.8,3.4 -9.8,3.4 z m 12.9,-31.6 c -2.8,0 -6.1,0.5 -9.8,1.6 l -2,19.2 h 12 c 2.1,0 3.3,-1.1 3.5,-3.2 l 1.6,-14.8 c 0.1,-0.8 -0.1,-1.5 -0.6,-2 -0.5,-0.5 -1.1,-0.8 -1.9,-0.8 z"
       id="path5555" />
    <path
       inkscape:connector-curvature="0"
       d="m 384.0064,814.89636 c 9.9,-1.1 18.7,-1.6 26.6,-1.6 3.6,0 6.4,1.1 8.4,3.3 2,2.2 2.7,5.1 2.4,8.7 l -3.3,31.2 h -12.4 l -0.4,-4 c -2.7,1.7 -5.4,2.9 -8.1,3.6 -2.7,0.8 -5,1.2 -6.8,1.2 h -2.8 c -3.6,0 -6.4,-1.1 -8.4,-3.3 -2,-2.2 -2.7,-5.1 -2.4,-8.7 l 0.4,-3.6 c 0.4,-3.6 1.8,-6.5 4.2,-8.7 2.4,-2.2 5.4,-3.3 9.1,-3.3 h 16.4 l 0.3,-3.2 c 0.1,-0.8 -0.1,-1.5 -0.6,-2 -0.5,-0.5 -1.1,-0.8 -1.9,-0.8 -3.5,0 -7.3,0.2 -11.5,0.5 -4.2,0.3 -7.6,0.6 -10.2,0.7 z m 11.6,31.2 c 2.8,0 6.1,-0.5 9.8,-1.6 l 0.5,-4.8 h -11.6 c -0.8,0 -1.5,0.3 -2.1,0.8 -0.6,0.5 -0.9,1.2 -1,2 l -0.1,0.8 c -0.1,0.8 0.1,1.5 0.6,2 0.5,0.5 1.1,0.8 1.9,0.8 z"
       id="path5557" />
    <path
       inkscape:connector-curvature="0"
       d="m 463.4064,855.69636 c -10.1,1.1 -18.9,1.6 -26.6,1.6 -3.6,0 -6.4,-1.1 -8.4,-3.3 -2,-2.2 -2.7,-5.1 -2.4,-8.7 l 1.9,-18.4 c 0.4,-4 1.9,-7.1 4.4,-9.4 2.5,-2.3 5.8,-3.4 9.8,-3.4 h 25.6 l -1.1,10.8 h -21.2 c -2.1,0 -3.3,1.1 -3.5,3.2 l -1.6,15.6 c -0.1,0.8 0.1,1.5 0.6,2 0.5,0.5 1.1,0.8 1.9,0.8 4.8,0 12,-0.4 21.7,-1.2 z"
       id="path5559" />
    <path
       inkscape:connector-curvature="0"
       d="m 509.5064,855.69636 c -10.4,1.1 -19.8,1.6 -28.2,1.6 -3.6,0 -6.4,-1.1 -8.4,-3.3 -2,-2.2 -2.7,-5.1 -2.4,-8.7 l 2,-19.2 c 0.4,-4 1.9,-7.1 4.4,-9.4 2.5,-2.3 5.8,-3.4 9.8,-3.4 h 16 c 4,0 7,1.1 9,3.4 2,2.3 2.8,5.4 2.4,9.4 l -1.6,14.8 h -27.6 l -0.3,3.2 c -0.1,0.8 0.1,1.5 0.6,2 0.5,0.5 1.1,0.8 1.9,0.8 5.3,0 13.1,-0.4 23.3,-1.2 z m -19.4,-32.4 c -2.1,0 -3.3,1.1 -3.5,3.2 l -0.5,4.4 h 13.6 l 0.5,-4.4 c 0.2,-2.1 -0.7,-3.2 -2.9,-3.2 z"
       id="path5561" />
    <g
       transform="matrix(1,0,-0.10510424,1,-1171.1153,70.096359)"
       id="g5567">
      <path
         id="path5569"
         d="m 1516.4,759.4 c 0,-0.2 0.2,-0.7 0.2,-0.7 0.1,-0.2 0.2,-0.3 0.3,-0.5 0.1,-0.1 0.3,-0.3 0.4,-0.4 0.2,-0.1 0.4,-0.1 0.6,-0.2 0.2,0 0.5,0 0.7,0.1 0.3,0.1 0.5,0.3 0.7,0.5 0.1,0.1 0.3,0.3 0.3,0.3 l 1.6,0.5 -1,-5.2 c 0,0 -4.5,-4.5 -4.7,-4.7 -0.1,-0.1 -0.2,-0.3 -0.2,-0.5 0,-0.2 0.1,-0.7 0.1,-0.7 0.1,-0.2 0.1,-0.4 0.2,-0.5 0.1,-0.2 0.2,-0.3 0.3,-0.5 0.2,-0.1 0.3,-0.2 0.6,-0.3 0.2,-0.1 0.5,-0.1 0.7,0 0.3,0 0.5,0.1 0.8,0.3 0.1,0.1 0.3,0.2 0.3,0.2 l 1.7,0.1 -2.3,-4.7 c 0,0 -5.5,-3.1 -5.8,-3.3 -0.1,-0.1 -0.3,-0.2 -0.3,-0.4 -0.1,-0.2 -0.1,-0.7 -0.1,-0.7 0,-0.2 0,-0.4 0,-0.5 0,-0.2 0.1,-0.4 0.2,-0.5 0.1,-0.2 0.3,-0.3 0.5,-0.4 0.2,-0.1 0.4,-0.2 0.7,-0.2 0.3,0 0.6,0 0.8,0 0.1,0 0.4,0.1 0.4,0.1 l 1.7,-0.4 -3.5,-3.9 c 0,0 -6.1,-1.6 -6.4,-1.7 -0.2,-0.1 -0.3,-0.2 -0.4,-0.3 -0.2,-0.2 -0.3,-0.7 -0.3,-0.7 0,-0.2 -0.1,-0.3 -0.1,-0.5 0,-0.2 0,-0.4 0.1,-0.6 0.1,-0.2 0.2,-0.4 0.3,-0.5 0.2,-0.2 0.4,-0.3 0.6,-0.4 0.3,-0.1 0.5,-0.2 0.8,-0.2 0.1,0 0.4,0 0.4,0 l 1.5,-0.8 -4.4,-2.9 c 0,0 -6.3,0 -6.7,0 -0.2,0 -0.3,-0.1 -0.5,-0.2 -0.2,-0.1 -0.5,-0.6 -0.5,-0.6 -0.1,-0.2 -0.2,-0.3 -0.3,-0.5 -0.1,-0.2 -0.1,-0.4 -0.1,-0.6 0,-0.2 0.1,-0.4 0.2,-0.6 0.1,-0.2 0.3,-0.4 0.5,-0.5 0.2,-0.2 0.5,-0.3 0.7,-0.4 0.1,0 0.4,-0.1 0.4,-0.1 l 1.3,-1.1 -5,-1.7 c 0,0 -6.1,1.7 -6.4,1.7 -0.2,0 -0.4,0 -0.5,-0.1 -0.2,-0.1 -0.6,-0.4 -0.6,-0.4 -0.1,-0.1 -0.3,-0.2 -0.4,-0.4 -0.1,-0.2 -0.2,-0.3 -0.2,-0.5 0,-0.2 0,-0.4 0,-0.6 0.1,-0.2 0.2,-0.5 0.3,-0.6 0.2,-0.2 0.4,-0.4 0.6,-0.5 0.1,-0.1 0.4,-0.2 0.4,-0.2 l 0.9,-1.4 -5.3,-0.3 c 0,0 -5.5,3.2 -5.8,3.3 -0.2,0.1 -0.3,0.1 -0.5,0.1 v 0 c -0.2,0 -0.7,-0.2 -0.7,-0.2 -0.2,-0.1 -0.3,-0.2 -0.5,-0.3 -0.1,-0.1 -0.3,-0.3 -0.4,-0.4 -0.1,-0.2 -0.1,-0.4 -0.2,-0.6 0,-0.2 0,-0.5 0.1,-0.7 0.1,-0.3 0.3,-0.5 0.5,-0.7 0.1,-0.1 0.3,-0.3 0.3,-0.3 l 0.5,-1.6 -5.2,1 c 0,0 -4.5,4.5 -4.7,4.7 -0.1,0.1 -0.3,0.2 -0.5,0.2 -0.2,0 -0.7,-0.1 -0.7,-0.1 -0.2,-0.1 -0.4,-0.1 -0.5,-0.2 -0.2,-0.1 -0.3,-0.2 -0.5,-0.3 -0.1,-0.2 -0.2,-0.3 -0.3,-0.6 -0.1,-0.2 -0.1,-0.5 0,-0.7 0,-0.3 0.1,-0.5 0.3,-0.8 0.1,-0.1 0.2,-0.3 0.2,-0.3 l 0.1,-1.7 -4.7,2.3 c 0,0 -3.1,5.5 -3.3,5.8 -0.1,0.1 -0.2,0.3 -0.4,0.3 -0.2,0.1 -0.7,0.1 -0.7,0.1 -0.2,0 -0.4,0 -0.5,0 -0.2,0 -0.4,-0.1 -0.5,-0.2 -0.2,-0.1 -0.3,-0.3 -0.4,-0.5 -0.1,-0.2 -0.2,-0.4 -0.2,-0.7 0,-0.3 0,-0.6 0,-0.8 0,-0.1 0.1,-0.4 0.1,-0.4 l -0.4,-1.7 -3.9,3.5 c 0,0 -1.6,6.1 -1.7,6.4 -0.1,0.2 -0.2,0.3 -0.3,0.4 -0.2,0.2 -0.7,0.3 -0.7,0.3 -0.2,0 -0.3,0.1 -0.5,0.1 -0.2,0 -0.4,0 -0.6,-0.1 -0.2,-0.1 -0.4,-0.2 -0.5,-0.3 -0.2,-0.2 -0.3,-0.4 -0.4,-0.6 -0.1,-0.3 -0.2,-0.5 -0.2,-0.8 0,-0.1 0,-0.4 0,-0.4 l -0.8,-1.5 -2.9,4.4 c 0,0 0,6.3 0,6.7 0,0.2 -0.1,0.3 -0.2,0.5 -0.1,0.2 -0.6,0.5 -0.6,0.5 -0.2,0.1 -0.3,0.2 -0.5,0.3 -0.2,0.1 -0.4,0.1 -0.6,0.1 -0.2,0 -0.4,-0.1 -0.6,-0.2 -0.2,-0.1 -0.4,-0.3 -0.5,-0.5 -0.2,-0.2 -0.3,-0.5 -0.4,-0.7 0,-0.1 -0.1,-0.4 -0.1,-0.4 l -1.1,-1.3 -1.7,5 c 0,0 1.7,6.1 1.7,6.4 0,0.2 0,0.4 -0.1,0.5 -0.1,0.2 -0.4,0.6 -0.4,0.6 -0.1,0.1 -0.2,0.3 -0.4,0.4 -0.2,0.1 -0.3,0.2 -0.5,0.2 -0.2,0 -0.4,0 -0.6,0 -0.2,-0.1 -0.5,-0.2 -0.6,-0.3 -0.2,-0.2 -0.4,-0.4 -0.5,-0.6 -0.1,-0.1 -0.2,-0.4 -0.2,-0.4 l -1.4,-0.9 -0.3,5.3 c 0,0 3.2,5.5 3.3,5.8 0.1,0.2 0.1,0.3 0.1,0.5 0,0.2 -0.2,0.7 -0.2,0.7 -0.1,0.2 -0.2,0.3 -0.3,0.5 -0.1,0.1 -0.3,0.3 -0.4,0.4 -0.2,0.1 -0.4,0.1 -0.6,0.2 -0.2,0 -0.5,0 -0.7,-0.1 -0.3,-0.1 -0.5,-0.3 -0.7,-0.5 -0.1,-0.1 -0.3,-0.3 -0.3,-0.3 l -1.6,-0.5 1,5.2 c 0,0 4.5,4.5 4.7,4.7 0.1,0.1 0.2,0.3 0.2,0.5 0,0.2 -0.1,0.7 -0.1,0.7 -0.1,0.2 -0.1,0.4 -0.2,0.5 -0.1,0.2 -0.2,0.3 -0.3,0.5 -0.2,0.1 -0.3,0.2 -0.6,0.3 -0.2,0.1 -0.5,0.1 -0.7,0 -0.3,0 -0.5,-0.1 -0.8,-0.3 -0.1,-0.1 -0.3,-0.2 -0.3,-0.2 l -1.7,-0.1 2.3,4.7 c 0,0 5.5,3.1 5.8,3.3 0.1,0.1 0.3,0.2 0.3,0.4 0.1,0.2 0.1,0.7 0.1,0.7 0,0.2 0,0.4 0,0.5 0,0.2 -0.1,0.4 -0.2,0.5 -0.1,0.2 -0.3,0.3 -0.5,0.4 -0.2,0.1 -0.4,0.2 -0.7,0.2 -0.3,0 -0.6,0 -0.8,0 -0.1,0 -0.4,-0.1 -0.4,-0.1 l -1.7,0.4 3.5,3.9 c 0,0 6.1,1.6 6.4,1.7 0.2,0.1 0.3,0.2 0.4,0.3 0.2,0.2 0.3,0.7 0.3,0.7 0,0.2 0.1,0.3 0.1,0.5 0,0.2 0,0.4 -0.1,0.6 -0.1,0.2 -0.2,0.4 -0.3,0.5 -0.2,0.2 -0.4,0.3 -0.6,0.4 -0.3,0.1 -0.5,0.2 -0.8,0.2 -0.1,0 -0.4,0 -0.4,0 l -1.5,0.8 4.4,2.9 c 0,0 6.3,0 6.7,0 0.2,0 0.3,0.1 0.5,0.2 0.2,0.1 0.5,0.6 0.5,0.6 0.1,0.2 0.2,0.3 0.3,0.5 0.1,0.2 0.1,0.4 0.1,0.6 0,0.2 -0.1,0.4 -0.2,0.6 -0.1,0.2 -0.3,0.4 -0.5,0.5 -0.2,0.2 -0.5,0.3 -0.7,0.4 -0.1,0 -0.4,0.1 -0.4,0.1 l -1.3,1.1 5,1.7 c 0,0 6.1,-1.7 6.4,-1.7 0.2,0 0.4,0 0.5,0.1 0.2,0.1 0.6,0.4 0.6,0.4 0.1,0.1 0.3,0.2 0.4,0.4 0.1,0.2 0.2,0.3 0.2,0.5 0,0.2 0,0.4 0,0.6 -0.1,0.2 -0.2,0.5 -0.3,0.6 -0.2,0.2 -0.4,0.4 -0.6,0.5 -0.1,0.1 -0.4,0.2 -0.4,0.2 l -0.9,1.4 5.3,0.3 c 0,0 5.5,-3.2 5.8,-3.3 0.2,-0.1 0.3,-0.1 0.5,-0.1 0.2,0 0.7,0.2 0.7,0.2 0.2,0.1 0.3,0.2 0.5,0.3 0.1,0.1 0.3,0.3 0.4,0.4 0.1,0.2 0.1,0.4 0.2,0.6 0,0.2 0,0.5 -0.1,0.7 -0.1,0.3 -0.3,0.5 -0.5,0.7 -0.1,0.1 -0.3,0.3 -0.3,0.3 l -0.5,1.6 5.2,-1 c 0,0 4.5,-4.5 4.7,-4.7 0.1,-0.1 0.3,-0.2 0.5,-0.2 0.2,0 0.7,0.1 0.7,0.1 0.2,0.1 0.4,0.1 0.5,0.2 0.2,0.1 0.3,0.2 0.5,0.3 0.1,0.2 0.2,0.3 0.3,0.6 0.1,0.2 0.1,0.5 0,0.7 0,0.3 -0.1,0.5 -0.3,0.8 -0.1,0.1 -0.2,0.3 -0.2,0.3 l -0.1,1.7 4.7,-2.3 c 0,0 3.1,-5.5 3.3,-5.8 0.1,-0.1 0.2,-0.3 0.4,-0.3 0.2,-0.1 0.7,-0.1 0.7,-0.1 0.2,0 0.4,0 0.5,0 0.2,0 0.4,0.1 0.5,0.2 0.2,0.1 0.3,0.3 0.4,0.5 0.1,0.2 0.2,0.4 0.2,0.7 0,0.3 0,0.6 0,0.8 0,0.1 -0.1,0.4 -0.1,0.4 l 0.4,1.7 3.9,-3.5 c 0,0 1.6,-6.1 1.7,-6.4 0.1,-0.2 0.2,-0.3 0.3,-0.4 0.2,-0.2 0.7,-0.3 0.7,-0.3 0.2,0 0.3,-0.1 0.5,-0.1 0.2,0 0.4,0 0.6,0.1 0.2,0.1 0.4,0.2 0.5,0.3 0.2,0.2 0.3,0.4 0.4,0.6 0.1,0.3 0.2,0.5 0.2,0.8 0,0.1 0,0.4 0,0.4 l 0.8,1.5 2.9,-4.4 c 0,0 0,-6.3 0,-6.7 0,-0.2 0.1,-0.3 0.2,-0.5 0.1,-0.2 0.6,-0.5 0.6,-0.5 0.2,-0.1 0.3,-0.2 0.5,-0.3 0.2,-0.1 0.4,-0.1 0.6,-0.1 0.2,0 0.4,0.1 0.6,0.2 0.2,0.1 0.4,0.3 0.5,0.5 0.2,0.2 0.3,0.5 0.4,0.7 0,0.1 0.1,0.4 0.1,0.4 l 1.1,1.3 1.7,-5 c 0,0 -1.7,-6.1 -1.7,-6.4 0,-0.2 0,-0.4 0.1,-0.5 0.1,-0.2 0.4,-0.6 0.4,-0.6 0.1,-0.1 0.2,-0.3 0.4,-0.4 0.2,-0.1 0.3,-0.2 0.5,-0.2 0.2,0 0.4,0 0.6,0 0.2,0.1 0.5,0.2 0.6,0.3 0.2,0.2 0.4,0.4 0.5,0.6 0.1,0.1 0.2,0.4 0.2,0.4 l 1.4,0.9 0.3,-5.3 c 0,0 -3.2,-5.5 -3.3,-5.8 -0.1,-0.1 -0.2,-0.3 -0.1,-0.5 z m -21.6,1.2 c -0.3,2.5 -2.5,0.2 -3.3,2.6 -0.8,2.4 2.4,1.8 1.2,4.1 v 0 c -1.2,2.2 -2.5,-0.7 -4.1,1.3 -1.6,2 1.6,2.6 -0.4,4.2 -1.9,1.7 -2,-1.6 -4.2,-0.3 -2.2,1.3 0.5,3 -1.9,3.8 -2.4,0.8 -1.3,-2.2 -3.8,-1.8 -2.5,0.4 -0.6,3 -3.1,2.9 -2.5,-0.1 -0.5,-2.5 -2.9,-3.1 -2.5,-0.5 -1.6,2.5 -4,1.6 -2.3,-1 0.5,-2.5 -1.6,-3.9 -2.1,-1.4 -2.4,1.8 -4.2,0 -1.8,-1.8 1.4,-2.2 -0.1,-4.2 -1.5,-2.1 -2.9,0.8 -4,-1.5 -1.1,-2.3 2,-1.5 1.4,-4 -0.6,-2.5 -3,-0.3 -3.2,-2.8 -0.2,-2.5 2.5,-0.7 2.8,-3.2 0.3,-2.5 -2.7,-1.4 -1.9,-3.8 0.8,-2.4 2.5,0.3 3.7,-2 1.2,-2.3 -2,-2.2 -0.4,-4.2 1.6,-2 2.3,1.2 4.2,-0.5 1.9,-1.7 -1.1,-2.8 1.1,-4.1 2.2,-1.3 1.7,1.9 4.1,1.1 2.4,-0.8 0,-3 2.5,-3.4 2.5,-0.4 0.9,2.4 3.5,2.5 2.5,0.1 1.1,-2.8 3.6,-2.3 2.5,0.5 0,2.6 2.3,3.5 2.3,1 2,-2.2 4.2,-0.8 2.1,1.4 -0.9,2.4 0.9,4.2 1.8,1.8 2.7,-1.3 4.2,0.8 1.5,2.1 -1.7,1.9 -0.7,4.2 1.1,2.3 3,-0.3 3.6,2.2 0.6,2.5 -2.3,1.1 -2.1,3.7 0.2,2.6 2.9,0.6 2.6,3.2 z"
         inkscape:connector-curvature="0" />
      <circle
         id="circle5571"
         r="3.5"
         cy="758.29999"
         cx="1475.7" />
    </g>
    <path
       inkscape:connector-curvature="0"
       d="m 284.5064,755.29636 -13.3,20 h -11.2 l -9.1,-20 -1.65,15.6 -0.825,7.8 -0.4125,3.9 -0.10488,0.99961 c 0,0 -3.68193,-1.52057 -6.969,-2.32005 -3.10968,-0.75634 -7.07079,-1.11866 -7.07079,-1.11866 l 0.0697,-0.6609 0.7375,-7 1.475,-14 2.95,-28 h 15.2 l 12.9,29.6 19.1,-29.6 h 15.2 l -5.9,56 h -14.4 z"
       id="path5541"
       sodipodi:nodetypes="ccccccccscccccccccccc" />
  </g>
  <style
     id="style4078"
     type="text/css">
	.st0{fill:#FFFFFF;}
	.st1{fill:#FFFFFF;stroke:#000000;stroke-width:0.9601;stroke-linecap:round;stroke-linejoin:round;}
	.st2{fill:#FFFFFF;stroke:#000000;stroke-width:4.8228;stroke-linecap:round;stroke-linejoin:round;}
	.st3{fill:none;}
	.st4{stroke:#000000;stroke-width:5;stroke-linecap:round;stroke-linejoin:round;}
	.st5{stroke:#000000;stroke-width:0.2444;}
	.st6{fill:#FFFFFF;stroke:#000000;stroke-width:0.2422;}
	.st7{stroke:#000000;stroke-width:0.3412;}
	.st8{stroke:#000000;stroke-width:0.1312;}
	.st9{fill:#FFFFFF;stroke:#000000;stroke-miterlimit:10;}
</style>
</svg>
